<svg width="28" height="28" viewBox="0 0 28 28" fill="none" xmlns="http://www.w3.org/2000/svg">
<path d="M25.9296 0.00019576H2.07042C1.80222 -0.00350666 1.53592 0.0453416 1.28671 0.143951C1.03751 0.24256 0.810286 0.388999 0.618025 0.574905C0.425763 0.76081 0.272227 0.98254 0.166186 1.22743C0.0601442 1.47232 0.00367379 1.73558 0 2.00217V25.9978C0.00367379 26.2644 0.0601442 26.5277 0.166186 26.7726C0.272227 27.0175 0.425763 27.2392 0.618025 27.4251C0.810286 27.611 1.03751 27.7574 1.28671 27.856C1.53592 27.9547 1.80222 28.0035 2.07042 27.9998H25.9296C26.1978 28.0035 26.4641 27.9547 26.7133 27.856C26.9625 27.7574 27.1897 27.611 27.382 27.4251C27.5742 27.2392 27.7278 27.0175 27.8338 26.7726C27.9399 26.5277 27.9963 26.2644 28 25.9978V2.00217C27.9963 1.73558 27.9399 1.47232 27.8338 1.22743C27.7278 0.98254 27.5742 0.76081 27.382 0.574905C27.1897 0.388999 26.9625 0.24256 26.7133 0.143951C26.4641 0.0453416 26.1978 -0.00350666 25.9296 0.00019576ZM8.49296 23.4359H4.26761V10.836H8.49296V23.4359ZM6.38028 9.07207C5.79755 9.07207 5.23869 8.84197 4.82664 8.4324C4.41459 8.02283 4.1831 7.46732 4.1831 6.8881C4.1831 6.30887 4.41459 5.75337 4.82664 5.3438C5.23869 4.93423 5.79755 4.70413 6.38028 4.70413C6.68971 4.66925 7.00306 4.69973 7.29982 4.79357C7.59658 4.8874 7.87005 5.04249 8.10233 5.24867C8.33461 5.45485 8.52046 5.70747 8.64771 5.98999C8.77495 6.27251 8.84073 6.57856 8.84073 6.8881C8.84073 7.19764 8.77495 7.50369 8.64771 7.78621C8.52046 8.06873 8.33461 8.32135 8.10233 8.52753C7.87005 8.73371 7.59658 8.88879 7.29982 8.98263C7.00306 9.07647 6.68971 9.10695 6.38028 9.07207ZM23.7324 23.4359H19.507V16.674C19.507 14.98 18.9014 13.874 17.3662 13.874C16.8911 13.8775 16.4284 14.0256 16.0406 14.2984C15.6528 14.5713 15.3584 14.9557 15.1972 15.4C15.087 15.729 15.0392 16.0756 15.0563 16.422V23.4219H10.831V10.822H15.0563V12.6C15.4402 11.938 15.9985 11.3926 16.671 11.0225C17.3436 10.6525 18.105 10.4718 18.8732 10.5C21.6901 10.5 23.7324 12.306 23.7324 16.184V23.4359Z" fill="#246AFE"/>
</svg>
